<?xml version="1.0" standalone="no"?>
<!DOCTYPE svg PUBLIC "-//W3C//DTD SVG 20010904//EN"
 "http://www.w3.org/TR/2001/REC-SVG-20010904/DTD/svg10.dtd">
<svg version="1.0" xmlns="http://www.w3.org/2000/svg"
 width="700.000000pt" height="700.000000pt" viewBox="0 0 700.000000 700.000000"
 preserveAspectRatio="xMidYMid meet">
<metadata>
Created by potrace 1.11, written by Peter Selinger 2001-2013
</metadata>
<g transform="translate(0.000000,700.000000) scale(0.100000,-0.100000)"
fill="#000000" stroke="none">
<path d="M3405 6935 c-49 -36 -97 -69 -105 -75 -225 -157 -2064 -1442 -2370
-1656 -151 -106 -283 -198 -293 -206 -16 -12 -3 -23 128 -113 80 -55 189 -130
243 -167 53 -37 105 -73 116 -80 10 -7 35 -25 55 -39 31 -22 321 -222 531
-367 91 -63 214 -148 285 -197 355 -245 635 -439 703 -486 l83 -57 -348 -244
-348 -243 0 -455 0 -455 250 -170 c138 -94 322 -219 410 -279 88 -61 216 -148
285 -195 68 -46 176 -120 240 -162 63 -43 120 -82 125 -87 6 -4 31 -22 58 -40
l47 -33 0 468 1 468 77 53 c42 29 193 134 335 233 l258 180 387 -267 c213
-146 393 -272 400 -279 11 -9 -68 -70 -400 -308 -227 -163 -422 -303 -433
-311 -172 -124 -511 -367 -545 -390 -25 -17 -46 -34 -48 -38 -2 -5 -8 -8 -13
-8 -6 0 -126 79 -267 177 -141 97 -318 218 -392 268 -74 51 -227 156 -340 233
-113 78 -269 185 -348 239 -79 54 -161 111 -182 126 l-40 29 0 464 0 465 -67
-47 c-182 -128 -331 -231 -358 -248 -16 -11 -35 -24 -42 -30 -6 -6 -40 -30
-75 -54 -35 -24 -146 -102 -248 -173 -102 -71 -192 -134 -200 -139 -8 -6 -58
-40 -110 -78 -52 -37 -125 -87 -162 -112 -37 -25 -67 -47 -68 -50 0 -3 28 -24
63 -48 34 -24 429 -298 877 -608 448 -310 838 -580 865 -599 54 -38 339 -235
443 -307 35 -23 77 -53 95 -66 46 -34 325 -226 440 -305 l98 -66 62 43 c217
150 2037 1411 2242 1553 138 95 257 177 265 183 86 61 159 111 228 157 45 31
82 59 81 62 0 3 -345 242 -766 531 -421 289 -844 579 -939 645 -96 66 -217
149 -269 185 -53 36 -124 85 -158 110 l-62 45 5 489 5 490 92 65 c50 36 154
109 229 161 76 52 168 117 206 143 l69 48 -358 246 c-197 135 -414 285 -483
332 -193 132 -263 181 -362 249 l-91 63 -41 -29 c-426 -301 -534 -378 -551
-393 -20 -18 -21 -28 -20 -494 0 -261 -2 -475 -3 -475 -4 0 -150 99 -167 113
-5 5 -152 106 -324 226 -173 120 -316 222 -317 227 -4 11 1411 999 1429 998 6
-1 102 -63 212 -139 110 -76 243 -168 295 -204 53 -36 171 -118 263 -181 92
-63 219 -151 282 -195 63 -44 171 -118 239 -165 l126 -85 -1 -190 c0 -104 0
-335 1 -513 l0 -322 82 57 c202 141 745 523 760 535 10 7 153 108 318 223 165
116 300 212 300 215 0 3 -28 24 -63 47 -34 22 -110 74 -168 115 -58 40 -223
154 -367 253 -144 99 -343 236 -442 305 -331 230 -1280 885 -1298 895 -9 6
-19 13 -22 16 -3 3 -48 34 -100 70 -52 35 -99 67 -105 72 -18 14 -315 217
-318 217 -1 0 -42 -30 -92 -65z"/>
</g>
</svg>
