<svg xmlns="http://www.w3.org/2000/svg" viewBox="0 0 36.3 30"><path d="M15.2 13.1H1.7c-.4 0-.7-.3-.7-.7V1.7c0-.4.3-.7.7-.7h13.5c.4 0 .8.3.8.7v10.7c0 .4-.4.7-.8.7zm19.4 0H21.1c-.4 0-.7-.3-.7-.7V1.7c0-.4.3-.7.7-.7h13.5c.4 0 .7.3.7.7v10.7c0 .4-.3.7-.7.7zM15.2 29H1.7c-.4 0-.7-.4-.7-.8V17.6c0-.4.3-.7.7-.7h13.5c.4 0 .7.3.7.7v10.7c.1.3-.3.7-.7.7zm19.4 0H21.1c-.4 0-.7-.3-.7-.7V17.6c0-.4.3-.7.7-.7h13.5c.4 0 .7.3.7.7v10.7c0 .3-.3.7-.7.7z" fill="none" stroke="#FFF" stroke-width="2" stroke-miterlimit="10"/></svg>