<svg xmlns="http://www.w3.org/2000/svg" viewBox="0 0 431.237 126.916"><path d="M143.573 82.753c7.189 0 10.785-2.459 10.785-7.379 0-1.513-.32-2.802-.958-3.867-.639-1.064-1.502-1.987-2.59-2.767-1.089-.781-2.331-1.455-3.725-2.022a127.174 127.174 0 0 0-4.435-1.702 45.08 45.08 0 0 1-5.108-2.093c-1.608-.781-3.005-1.702-4.187-2.767-1.183-1.064-2.117-2.329-2.803-3.796s-1.028-3.24-1.028-5.322c0-4.304 1.465-7.664 4.399-10.076 2.933-2.413 6.977-3.619 12.133-3.619 2.981 0 5.687.32 8.124.958 2.436.639 4.222 1.337 5.357 2.093l-2.2 5.605c-.993-.613-2.472-1.218-4.434-1.809-1.964-.59-4.246-.887-6.847-.887-1.325 0-2.554.142-3.689.426-1.136.283-2.129.71-2.981 1.277s-1.526 1.29-2.022 2.164c-.496.876-.745 1.904-.745 3.086 0 1.325.259 2.437.781 3.335.52.899 1.253 1.692 2.2 2.377.946.687 2.045 1.313 3.299 1.881a67.408 67.408 0 0 0 4.151 1.702c2.128.852 4.08 1.702 5.854 2.554s3.311 1.87 4.612 3.052a12.225 12.225 0 0 1 3.015 4.221c.71 1.632 1.065 3.608 1.065 5.925 0 4.306-1.573 7.617-4.719 9.935-3.147 2.318-7.581 3.476-13.304 3.476-1.941 0-3.726-.131-5.357-.39-1.632-.26-3.087-.567-4.364-.923-1.277-.354-2.377-.733-3.299-1.135a28.554 28.554 0 0 1-2.164-1.028l2.058-5.677c1.088.616 2.743 1.302 4.967 2.058 2.221.757 4.941 1.134 8.159 1.134zm23.973 4.896V33.724l6.599-1.136v18.874a22.408 22.408 0 0 1 3.938-1.099 22.691 22.691 0 0 1 4.151-.391c2.931 0 5.368.415 7.308 1.242 1.939.829 3.487 1.988 4.647 3.477 1.158 1.49 1.974 3.276 2.448 5.357.472 2.083.71 4.376.71 6.883V87.65h-6.599v-19.3c0-2.271-.155-4.21-.461-5.818-.308-1.608-.816-2.91-1.526-3.903-.71-.993-1.656-1.714-2.838-2.163-1.183-.449-2.649-.674-4.399-.674-.71 0-1.444.047-2.2.141-.758.096-1.479.202-2.164.32-.687.118-1.301.249-1.845.39-.544.142-.934.261-1.17.355V87.65h-6.599zm69.216-18.447c0 2.934-.426 5.582-1.277 7.947-.852 2.366-2.047 4.399-3.584 6.102a15.775 15.775 0 0 1-5.499 3.938c-2.129.922-4.447 1.384-6.953 1.384-2.508 0-4.825-.462-6.954-1.384a15.762 15.762 0 0 1-5.499-3.938c-1.537-1.703-2.732-3.736-3.583-6.102-.852-2.365-1.277-5.013-1.277-7.947 0-2.885.425-5.522 1.277-7.912.851-2.388 2.045-4.434 3.583-6.137a15.765 15.765 0 0 1 5.499-3.939c2.129-.922 4.446-1.383 6.954-1.383 2.506 0 4.824.461 6.953 1.383a15.752 15.752 0 0 1 5.499 3.939c1.536 1.702 2.732 3.749 3.584 6.137.851 2.389 1.277 5.026 1.277 7.912zm-6.883 0c0-4.163-.934-7.462-2.803-9.899-1.869-2.435-4.411-3.654-7.627-3.654-3.218 0-5.759 1.219-7.628 3.654-1.869 2.437-2.803 5.736-2.803 9.899 0 4.163.934 7.462 2.803 9.898 1.869 2.437 4.41 3.654 7.628 3.654 3.216 0 5.758-1.216 7.627-3.654 1.869-2.436 2.803-5.736 2.803-9.898zm44.062.07c0 2.792-.367 5.37-1.099 7.735-.735 2.366-1.81 4.399-3.229 6.102a14.657 14.657 0 0 1-5.215 3.973c-2.058.946-4.411 1.419-7.06 1.419-2.129 0-4.009-.284-5.641-.852-1.631-.567-2.85-1.111-3.654-1.632v14.759h-6.599V51.888c1.56-.377 3.511-.791 5.854-1.242 2.341-.448 5.049-.674 8.124-.674 2.837 0 5.393.45 7.663 1.348 2.271.9 4.21 2.177 5.818 3.832 1.608 1.655 2.85 3.678 3.726 6.067.874 2.389 1.312 5.073 1.312 8.053zm-6.883 0c0-4.304-1.064-7.614-3.193-9.934-2.129-2.317-4.967-3.476-8.514-3.476-1.987 0-3.537.07-4.648.212-1.112.142-1.999.308-2.661.496v23.274c.804.663 1.962 1.301 3.476 1.916 1.513.616 3.169.922 4.967.922 1.892 0 3.513-.342 4.861-1.028a8.922 8.922 0 0 0 3.299-2.838c.852-1.206 1.465-2.625 1.845-4.257.379-1.633.568-3.395.568-5.287z" fill="#fff"/><path d="M282.115 87.649V38.478h29.66v5.889h-22.777v14.83h20.221v5.818h-20.221v22.634h-6.883zm47.397.71c-4.069-.095-6.954-.969-8.656-2.625-1.703-1.655-2.554-4.233-2.554-7.735V33.724l6.599-1.136v44.347c0 1.089.094 1.987.283 2.696.189.71.497 1.277.923 1.702.425.426.994.745 1.703.958.709.213 1.583.39 2.625.532l-.923 5.536zm36.751-19.157c0 2.934-.426 5.582-1.277 7.947-.852 2.366-2.047 4.399-3.584 6.102a15.775 15.775 0 0 1-5.499 3.938c-2.129.922-4.447 1.384-6.953 1.384-2.508 0-4.825-.462-6.954-1.384a15.762 15.762 0 0 1-5.499-3.938c-1.537-1.703-2.732-3.736-3.583-6.102-.852-2.365-1.277-5.013-1.277-7.947 0-2.885.425-5.522 1.277-7.912.851-2.388 2.045-4.434 3.583-6.137a15.765 15.765 0 0 1 5.499-3.939c2.129-.922 4.446-1.383 6.954-1.383 2.506 0 4.824.461 6.953 1.383a15.752 15.752 0 0 1 5.499 3.939c1.536 1.702 2.732 3.749 3.584 6.137.85 2.389 1.277 5.026 1.277 7.912zm-6.883 0c0-4.163-.934-7.462-2.803-9.899-1.869-2.435-4.411-3.654-7.627-3.654-3.218 0-5.759 1.219-7.628 3.654-1.869 2.437-2.803 5.736-2.803 9.899 0 4.163.934 7.462 2.803 9.898 1.869 2.437 4.41 3.654 7.628 3.654 3.216 0 5.758-1.216 7.627-3.654 1.868-2.436 2.803-5.736 2.803-9.898zm45.512 0c0 2.934-.426 5.582-1.277 7.947-.852 2.366-2.047 4.399-3.584 6.102a15.775 15.775 0 0 1-5.499 3.938c-2.129.922-4.447 1.384-6.953 1.384-2.508 0-4.825-.462-6.954-1.384a15.762 15.762 0 0 1-5.499-3.938c-1.537-1.703-2.732-3.736-3.583-6.102-.852-2.365-1.277-5.013-1.277-7.947 0-2.885.425-5.522 1.277-7.912.851-2.388 2.045-4.434 3.583-6.137a15.765 15.765 0 0 1 5.499-3.939c2.129-.922 4.446-1.383 6.954-1.383 2.506 0 4.824.461 6.953 1.383a15.752 15.752 0 0 1 5.499 3.939c1.536 1.702 2.732 3.749 3.584 6.137.851 2.389 1.277 5.026 1.277 7.912zm-6.883 0c0-4.163-.934-7.462-2.803-9.899-1.869-2.435-4.411-3.654-7.627-3.654-3.218 0-5.759 1.219-7.628 3.654-1.869 2.437-2.803 5.736-2.803 9.899 0 4.163.934 7.462 2.803 9.898 1.869 2.437 4.41 3.654 7.628 3.654 3.216 0 5.758-1.216 7.627-3.654 1.869-2.436 2.803-5.736 2.803-9.898zm25.849-19.23c.567 0 1.218.036 1.951.107.733.071 1.455.166 2.164.284.71.118 1.36.237 1.951.354.592.119 1.029.226 1.313.32l-1.135 5.747c-.521-.188-1.384-.414-2.59-.674-1.207-.259-2.757-.39-4.647-.39-1.231 0-2.449.131-3.655.39-1.206.26-1.999.438-2.377.532V87.65h-6.599V52.314c1.56-.567 3.5-1.1 5.818-1.597 2.318-.496 4.921-.745 7.806-.745z" fill="#ef5351"/><path d="M275.974 126.916c-1.25 0-2.389-.206-3.415-.617a7.259 7.259 0 0 1-2.646-1.799c-.736-.787-1.306-1.759-1.708-2.915-.403-1.156-.604-2.478-.604-3.968 0-1.489.226-2.812.681-3.968.454-1.156 1.066-2.127 1.835-2.915a7.793 7.793 0 0 1 2.696-1.799 8.774 8.774 0 0 1 3.288-.616 11.684 11.684 0 0 1 3.532.514c.437.137.792.274 1.066.411.274.138.462.24.564.308l-.719 2.055a4.088 4.088 0 0 0-.667-.333c-.293-.12-.621-.239-.989-.36a9.088 9.088 0 0 0-1.208-.296 7.61 7.61 0 0 0-1.323-.115c-.941 0-1.789.162-2.542.488a5.24 5.24 0 0 0-1.927 1.412c-.531.617-.936 1.366-1.221 2.248-.282.882-.422 1.871-.422 2.966 0 1.062.123 2.03.372 2.902.247.874.621 1.623 1.116 2.248a5.023 5.023 0 0 0 1.862 1.451c.746.343 1.614.514 2.606.514 1.147 0 2.099-.12 2.851-.36.755-.24 1.319-.454 1.695-.643l.644 2.055c-.121.086-.334.193-.644.321a8.602 8.602 0 0 1-1.156.373c-.462.119-1.001.223-1.618.308-.613.087-1.28.13-1.999.13zm13.716-9.298c0-1.524.226-2.868.681-4.032.454-1.164 1.068-2.136 1.848-2.916a7.664 7.664 0 0 1 2.723-1.759 9.2 9.2 0 0 1 3.3-.59c1.148 0 2.23.196 3.248.59 1.02.394 1.915.98 2.684 1.759.771.78 1.384 1.752 1.837 2.916.454 1.164.681 2.508.681 4.032 0 1.525-.228 2.869-.681 4.033-.454 1.164-1.066 2.136-1.837 2.915a7.528 7.528 0 0 1-2.684 1.759 8.921 8.921 0 0 1-3.248.592 9.197 9.197 0 0 1-3.3-.592 7.62 7.62 0 0 1-2.723-1.759c-.78-.779-1.394-1.751-1.848-2.915-.455-1.164-.681-2.508-.681-4.033zm2.619 0c0 1.079.138 2.059.412 2.941.274.882.663 1.631 1.168 2.247a5.093 5.093 0 0 0 1.85 1.425c.727.334 1.545.502 2.452.502s1.722-.167 2.441-.502a5.13 5.13 0 0 0 1.835-1.425c.506-.616.895-1.365 1.168-2.247.274-.882.412-1.862.412-2.941s-.138-2.059-.412-2.941c-.274-.881-.663-1.63-1.168-2.247a5.118 5.118 0 0 0-1.835-1.425c-.719-.334-1.534-.501-2.441-.501s-1.724.166-2.452.501c-.729.333-1.344.809-1.85 1.425s-.895 1.366-1.168 2.247c-.274.882-.412 1.862-.412 2.941zm36.958 8.912c-.376-.633-.809-1.344-1.296-2.132a94.483 94.483 0 0 0-1.58-2.453 146.074 146.074 0 0 0-1.76-2.581 113.45 113.45 0 0 0-1.81-2.529c-.6-.813-1.181-1.58-1.747-2.299a47.453 47.453 0 0 0-1.566-1.901v13.895h-2.439v-17.799h1.977a52.228 52.228 0 0 1 2.581 2.992 119.83 119.83 0 0 1 5.265 7.076 65.859 65.859 0 0 1 2.015 3.107v-13.175h2.441v17.799h-2.081zm25.377 0c-.376-.633-.809-1.344-1.298-2.132a89.254 89.254 0 0 0-1.578-2.453 157.783 157.783 0 0 0-1.76-2.581 120.336 120.336 0 0 0-1.81-2.529 98.46 98.46 0 0 0-1.747-2.299 45.72 45.72 0 0 0-1.568-1.901v13.895h-2.439v-17.799h1.977a51.446 51.446 0 0 1 2.581 2.992c.915 1.139 1.825 2.312 2.724 3.519s1.745 2.393 2.542 3.557 1.469 2.2 2.017 3.107v-13.175h2.439v17.799h-2.08zm13.177 0v-17.799h10.863v2.132h-8.373v5.29h7.449v2.081h-7.449v6.164h9.017v2.132h-11.507zm28.278.386c-1.25 0-2.389-.206-3.415-.617a7.259 7.259 0 0 1-2.646-1.799c-.736-.787-1.306-1.759-1.708-2.915-.403-1.156-.604-2.478-.604-3.968 0-1.489.226-2.812.681-3.968.454-1.156 1.066-2.127 1.835-2.915a7.793 7.793 0 0 1 2.696-1.799 8.774 8.774 0 0 1 3.288-.616 11.684 11.684 0 0 1 3.532.514c.437.137.792.274 1.066.411.274.138.462.24.564.308l-.719 2.055a4.088 4.088 0 0 0-.667-.333c-.293-.12-.621-.239-.989-.36a9.088 9.088 0 0 0-1.208-.296 7.61 7.61 0 0 0-1.323-.115c-.941 0-1.789.162-2.542.488a5.24 5.24 0 0 0-1.927 1.412c-.531.617-.936 1.366-1.221 2.248-.282.882-.422 1.871-.422 2.966 0 1.062.123 2.03.372 2.902.247.874.621 1.623 1.116 2.248a5.023 5.023 0 0 0 1.862 1.451c.746.343 1.614.514 2.606.514 1.147 0 2.099-.12 2.851-.36.755-.24 1.319-.454 1.695-.643l.644 2.055c-.121.086-.334.193-.644.321a8.602 8.602 0 0 1-1.156.373c-.462.119-1.001.223-1.618.308-.614.087-1.28.13-1.999.13zm27.274-18.184v2.157h-5.598v15.642h-2.491v-15.642h-5.6v-2.157h13.689zM65.298 63.568v.006L39.194 45.611v-.001l-13.007-8.949 13.007-9.108v-.001l13.057-9.143 25.755 17.747v18.512l26.514-18.582L52.251 0 .044 36.453 39.005 63.35l39.999 27.622-26.463 19.047-28.304-19.455V73.679L0 90.622l52.251 36.207 52.288-36.264z" fill="#fff"/><path fill="#ef5351" d="M41.104 29.548l23.642 15.841 10.854-7.59-23.392-16.104z"/><path fill="#bb403e" d="M41.104 29.548v17.377l23.642 16.264v-17.8z"/><path fill="#ef5351" d="M52.251 89.427l12.174-8.524-25.179-17.387-12.64 8.838v.005z"/><path fill="#bb403e" d="M52.251 106.303V89.427L26.606 72.359v16.49z"/></svg>