<svg xmlns="http://www.w3.org/2000/svg" viewBox="0 0 513.2 151"><path d="M170.9 98.5c8.6 0 12.8-2.9 12.8-8.8 0-1.8-.4-3.3-1.1-4.6-.8-1.3-1.8-2.4-3.1-3.3-1.3-.9-2.8-1.7-4.4-2.4-1.7-.7-3.4-1.4-5.3-2-2.1-.7-4.2-1.6-6.1-2.5-1.9-.9-3.6-2-5-3.3-1.4-1.3-2.5-2.8-3.3-4.5s-1.2-3.9-1.2-6.3c0-5.1 1.7-9.1 5.2-12 3.5-2.9 8.3-4.3 14.4-4.3 3.5 0 6.8.4 9.7 1.1 2.9.8 5 1.6 6.4 2.5l-2.6 6.7c-1.2-.7-2.9-1.4-5.3-2.2-2.3-.7-5.1-1.1-8.1-1.1-1.6 0-3 .2-4.4.5-1.4.3-2.5.8-3.5 1.5s-1.8 1.5-2.4 2.6c-.6 1-.9 2.3-.9 3.7 0 1.6.3 2.9.9 4 .6 1.1 1.5 2 2.6 2.8 1.1.8 2.4 1.6 3.9 2.2 1.5.7 3.1 1.4 4.9 2 2.5 1 4.9 2 7 3 2.1 1 3.9 2.2 5.5 3.6 1.5 1.4 2.7 3.1 3.6 5 .8 1.9 1.3 4.3 1.3 7.1 0 5.1-1.9 9.1-5.6 11.8-3.7 2.8-9 4.1-15.8 4.1-2.3 0-4.4-.2-6.4-.5-1.9-.3-3.7-.7-5.2-1.1-1.5-.4-2.8-.9-3.9-1.4-1.1-.5-2-.9-2.6-1.2l2.4-6.8c1.3.7 3.3 1.5 5.9 2.4 2.6 1.2 5.8 1.7 9.7 1.7zm28.5 5.8V40.1l7.9-1.4v22.5c1.5-.6 3-1 4.7-1.3 1.7-.3 3.3-.5 4.9-.5 3.5 0 6.4.5 8.7 1.5 2.3 1 4.2 2.4 5.5 4.1 1.4 1.8 2.3 3.9 2.9 6.4.6 2.5.8 5.2.8 8.2v24.7H227v-23c0-2.7-.2-5-.5-6.9-.4-1.9-1-3.5-1.8-4.6-.8-1.2-2-2-3.4-2.6-1.4-.5-3.2-.8-5.2-.8-.8 0-1.7.1-2.6.2-.9.1-1.8.2-2.6.4-.8.1-1.5.3-2.2.5-.6.2-1.1.3-1.4.4v36.5h-7.9zm82.4-21.9c0 3.5-.5 6.6-1.5 9.5-1 2.8-2.4 5.2-4.3 7.3-1.8 2-4 3.6-6.5 4.7s-5.3 1.6-8.3 1.6c-3 0-5.7-.5-8.3-1.6-2.5-1.1-4.7-2.7-6.5-4.7-1.8-2-3.3-4.4-4.3-7.3-1-2.8-1.5-6-1.5-9.5 0-3.4.5-6.6 1.5-9.4 1-2.8 2.4-5.3 4.3-7.3 1.8-2 4-3.6 6.5-4.7s5.3-1.6 8.3-1.6c3 0 5.7.5 8.3 1.6 2.5 1.1 4.7 2.7 6.5 4.7 1.8 2 3.3 4.5 4.3 7.3s1.5 5.9 1.5 9.4zm-8.2 0c0-5-1.1-8.9-3.3-11.8-2.2-2.9-5.2-4.3-9.1-4.3-3.8 0-6.9 1.5-9.1 4.3-2.2 2.9-3.3 6.8-3.3 11.8s1.1 8.9 3.3 11.8c2.2 2.9 5.2 4.3 9.1 4.3 3.8 0 6.9-1.4 9.1-4.3 2.2-3 3.3-6.9 3.3-11.8zm52.4 0c0 3.3-.4 6.4-1.3 9.2-.9 2.8-2.2 5.2-3.8 7.3-1.7 2-3.8 3.6-6.2 4.7-2.4 1.1-5.2 1.7-8.4 1.7-2.5 0-4.8-.3-6.7-1-1.9-.7-3.4-1.3-4.3-1.9V120h-7.9V61.8c1.9-.4 4.2-.9 7-1.5 2.8-.5 6-.8 9.7-.8 3.4 0 6.4.5 9.1 1.6 2.7 1.1 5 2.6 6.9 4.6 1.9 2 3.4 4.4 4.4 7.2 1 2.8 1.5 6 1.5 9.5zm-8.2 0c0-5.1-1.3-9.1-3.8-11.8-2.5-2.8-5.9-4.1-10.1-4.1-2.4 0-4.2.1-5.5.3-1.3.2-2.4.4-3.2.6V95c1 .8 2.3 1.5 4.1 2.3 1.8.7 3.8 1.1 5.9 1.1 2.3 0 4.2-.4 5.8-1.2 1.6-.8 2.9-1.9 3.9-3.4 1-1.4 1.7-3.1 2.2-5.1.5-1.9.7-4 .7-6.3zm17.9 21.9V45.8H371v7h-27.1v17.6H368v6.9h-24.1v26.9h-8.2zm56.5.9c-4.8-.1-8.3-1.2-10.3-3.1-2-2-3-5-3-9.2V40.1l7.9-1.4v52.8c0 1.3.1 2.4.3 3.2.2.8.6 1.5 1.1 2 .5.5 1.2.9 2 1.1.8.3 1.9.5 3.1.6l-1.1 6.8zm43.7-22.8c0 3.5-.5 6.6-1.5 9.5-1 2.8-2.4 5.2-4.3 7.3-1.8 2-4 3.6-6.5 4.7s-5.3 1.6-8.3 1.6c-3 0-5.7-.5-8.3-1.6-2.5-1.1-4.7-2.7-6.5-4.7-1.8-2-3.3-4.4-4.3-7.3-1-2.8-1.5-6-1.5-9.5 0-3.4.5-6.6 1.5-9.4 1-2.8 2.4-5.3 4.3-7.3 1.8-2 4-3.6 6.5-4.7s5.3-1.6 8.3-1.6c3 0 5.7.5 8.3 1.6 2.5 1.1 4.7 2.7 6.5 4.7 1.8 2 3.3 4.5 4.3 7.3s1.5 5.9 1.5 9.4zm-8.2 0c0-5-1.1-8.9-3.3-11.8-2.2-2.9-5.2-4.3-9.1-4.3-3.8 0-6.9 1.5-9.1 4.3-2.2 2.9-3.3 6.8-3.3 11.8s1.1 8.9 3.3 11.8c2.2 2.9 5.2 4.3 9.1 4.3 3.8 0 6.9-1.4 9.1-4.3 2.2-3 3.3-6.9 3.3-11.8zm54.2 0c0 3.5-.5 6.6-1.5 9.5-1 2.8-2.4 5.2-4.3 7.3-1.8 2-4 3.6-6.5 4.7s-5.3 1.6-8.3 1.6c-3 0-5.7-.5-8.3-1.6-2.5-1.1-4.7-2.7-6.5-4.7-1.8-2-3.3-4.4-4.3-7.3-1-2.8-1.5-6-1.5-9.5 0-3.4.5-6.6 1.5-9.4 1-2.8 2.4-5.3 4.3-7.3 1.8-2 4-3.6 6.5-4.7s5.3-1.6 8.3-1.6c3 0 5.7.5 8.3 1.6 2.5 1.1 4.7 2.7 6.5 4.7 1.8 2 3.3 4.5 4.3 7.3s1.5 5.9 1.5 9.4zm-8.2 0c0-5-1.1-8.9-3.3-11.8-2.2-2.9-5.2-4.3-9.1-4.3-3.8 0-6.9 1.5-9.1 4.3-2.2 2.9-3.3 6.8-3.3 11.8s1.1 8.9 3.3 11.8c2.2 2.9 5.2 4.3 9.1 4.3 3.8 0 6.9-1.4 9.1-4.3 2.2-3 3.3-6.9 3.3-11.8zm30.7-22.9c.7 0 1.4 0 2.3.1.9.1 1.7.2 2.6.3.8.1 1.6.3 2.3.4.7.1 1.2.3 1.6.4l-1.4 6.8c-.6-.2-1.6-.5-3.1-.8-1.4-.3-3.3-.5-5.5-.5-1.5 0-2.9.2-4.3.5s-2.4.5-2.8.6v36.9h-7.9V62.3c1.9-.7 4.2-1.3 6.9-1.9 2.8-.6 5.9-.9 9.3-.9z" fill="#334754"/><path d="M328.4 151c-1.5 0-2.8-.2-4.1-.7-1.2-.5-2.3-1.2-3.1-2.1-.9-.9-1.6-2.1-2-3.5-.5-1.4-.7-2.9-.7-4.7 0-1.8.3-3.3.8-4.7.5-1.4 1.3-2.5 2.2-3.5.9-.9 2-1.7 3.2-2.1 1.2-.5 2.5-.7 3.9-.7.9 0 1.7.1 2.4.2s1.3.3 1.8.4c.5.2.9.3 1.3.5.3.2.5.3.7.4l-.9 2.4c-.2-.1-.4-.3-.8-.4-.3-.1-.7-.3-1.2-.4-.4-.1-.9-.3-1.4-.4-.5-.1-1-.1-1.6-.1-1.1 0-2.1.2-3 .6-.9.4-1.7.9-2.3 1.7-.6.7-1.1 1.6-1.5 2.7-.3 1-.5 2.2-.5 3.5 0 1.3.1 2.4.4 3.5.3 1 .7 1.9 1.3 2.7.6.7 1.3 1.3 2.2 1.7.9.4 1.9.6 3.1.6 1.4 0 2.5-.1 3.4-.4.9-.3 1.6-.5 2-.8l.8 2.4c-.1.1-.4.2-.8.4s-.8.3-1.4.4c-.5.1-1.2.3-1.9.4h-2.3zm16.4-11c0-1.8.3-3.4.8-4.8s1.3-2.5 2.2-3.5c.9-.9 2-1.6 3.2-2.1 1.2-.5 2.5-.7 3.9-.7s2.7.2 3.9.7c1.2.5 2.3 1.2 3.2 2.1.9.9 1.6 2.1 2.2 3.5.5 1.4.8 3 .8 4.8 0 1.8-.3 3.4-.8 4.8s-1.3 2.5-2.2 3.5c-.9.9-2 1.6-3.2 2.1-1.2.5-2.5.7-3.9.7s-2.7-.2-3.9-.7c-1.2-.5-2.3-1.2-3.2-2.1-.9-.9-1.7-2.1-2.2-3.5-.6-1.4-.8-3-.8-4.8zm3.1 0c0 1.3.2 2.5.5 3.5s.8 1.9 1.4 2.7c.6.7 1.3 1.3 2.2 1.7.9.4 1.8.6 2.9.6 1.1 0 2-.2 2.9-.6.9-.4 1.6-1 2.2-1.7.6-.7 1.1-1.6 1.4-2.7.3-1 .5-2.2.5-3.5s-.2-2.5-.5-3.5-.8-1.9-1.4-2.7c-.6-.7-1.3-1.3-2.2-1.7-.9-.4-1.8-.6-2.9-.6-1.1 0-2.1.2-2.9.6-.9.4-1.6 1-2.2 1.7-.6.7-1.1 1.6-1.4 2.7-.4 1-.5 2.2-.5 3.5zm44 10.6c-.4-.8-1-1.6-1.5-2.5-.6-.9-1.2-1.9-1.9-2.9s-1.4-2-2.1-3.1c-.7-1-1.4-2-2.2-3-.7-1-1.4-1.9-2.1-2.7-.7-.9-1.3-1.6-1.9-2.3v16.5h-2.9v-21.2h2.4c1 1 2 2.2 3.1 3.6s2.2 2.8 3.2 4.2c1.1 1.4 2.1 2.8 3 4.2.9 1.4 1.7 2.6 2.4 3.7v-15.7h2.9v21.2h-2.4zm30.2 0c-.4-.8-1-1.6-1.5-2.5-.6-.9-1.2-1.9-1.9-2.9s-1.4-2-2.1-3.1c-.7-1-1.4-2-2.2-3-.7-1-1.4-1.9-2.1-2.7-.7-.9-1.3-1.6-1.9-2.3v16.5h-2.9v-21.2h2.4c1 1 2 2.2 3.1 3.6s2.2 2.8 3.2 4.2c1.1 1.4 2.1 2.8 3 4.2.9 1.4 1.7 2.6 2.4 3.7v-15.7h2.9v21.2h-2.4zm15.6 0v-21.2h12.9v2.5h-10v6.3h8.9v2.5h-8.9v7.3h10.7v2.5h-13.6zm33.7.4c-1.5 0-2.8-.2-4.1-.7-1.2-.5-2.3-1.2-3.1-2.1-.9-.9-1.6-2.1-2-3.5-.5-1.4-.7-2.9-.7-4.7 0-1.8.3-3.3.8-4.7.5-1.4 1.3-2.5 2.2-3.5.9-.9 2-1.7 3.2-2.1 1.2-.5 2.5-.7 3.9-.7.9 0 1.7.1 2.4.2s1.3.3 1.8.4c.5.2.9.3 1.3.5.3.2.5.3.7.4l-.9 2.4c-.2-.1-.4-.3-.8-.4-.3-.1-.7-.3-1.2-.4-.4-.1-.9-.3-1.4-.4-.5-.1-1-.1-1.6-.1-1.1 0-2.1.2-3 .6-.9.4-1.7.9-2.3 1.7-.6.7-1.1 1.6-1.5 2.7-.3 1-.5 2.2-.5 3.5 0 1.3.1 2.4.4 3.5.3 1 .7 1.9 1.3 2.7.6.7 1.3 1.3 2.2 1.7.9.4 1.9.6 3.1.6 1.4 0 2.5-.1 3.4-.4.9-.3 1.6-.5 2-.8l.8 2.4c-.1.1-.4.2-.8.4s-.8.3-1.4.4c-.5.1-1.2.3-1.9.4h-2.3zm32.5-21.6v2.6h-6.7v18.6h-3V132h-6.7v-2.6h16.4z" fill="#EF5351"/><path fill="#334754" d="M77.7 75.7L46.6 54.3 31.2 43.6l15.4-10.8 15.6-10.9L92.8 43v22.1l31.6-22.2L62.2 0 .1 43.4l46.3 32L94 108.3l-31.5 22.6-33.7-23.1V87.7L0 107.8l62.2 43.1 62.2-43.1z"/><path fill="#EF5351" d="M48.9 35.2L77.1 54 90 45 62.1 25.8z"/><path fill="#BB403E" d="M48.9 35.2v20.6l28.2 19.4V54z"/><path fill="#EF5351" d="M62.2 106.4l14.5-10.1-30-20.7-15 10.5z"/><path fill="#BB403E" d="M62.2 126.5v-20.1L31.7 86.1v19.6z"/></svg>